# xmcd
#
# Track frame offsets:
# 150
# 18396
# 32437
# 51636
# 65514
# 88805
# 107542
# 121973
# 145436
# 166527
# 194528
# 206416
# 220507
# 240610
#
# Disc length: 3494 seconds
#
#
# Revision: 1
# Processed by: cddbd v1.5.2PL0 Copyright (c) Steve Scherf et al.
# Submitted via: FreeRIP 2.943 
#
DISCID=c10da40e
DTITLE=Champagne Charlie - Mr. Charlie's Blues Live At 't Spiegeltheater
DYEAR=2005
DGENRE=Blues
TTITLE0=Mr. Charlie's Blues
TTITLE1=What's The Matter Blues
TTITLE2=Harmonica Blues
TTITLE3=Mobile Line
TTITLE4=Spellbound
TTITLE5=Louis Collins
TTITLE6=Drinking Wine
TTITLE7=Rich Girl
TTITLE8=Jesus On The Mainline
TTITLE9=Diddy Wah Diddy
TTITLE10=Brownskin Gal
TTITLE11=Greasy Greens
TTITLE12=Let That Liar Pass On By
TTITLE13=Mr. Charlie's Blues
EXTD=
EXTT0=
EXTT1=
EXTT2=
EXTT3=
EXTT4=
EXTT5=
EXTT6=
EXTT7=
EXTT8=
EXTT9=
EXTT10=
EXTT11=
EXTT12=
EXTT13=
PLAYORDER=
